G04 #@! TF.GenerationSoftware,KiCad,Pcbnew,9.0.0*
G04 #@! TF.CreationDate,2025-05-13T10:04:43+08:00*
G04 #@! TF.ProjectId,STEAM 2025 V4,53544541-4d20-4323-9032-352056342e6b,rev?*
G04 #@! TF.SameCoordinates,Original*
G04 #@! TF.FileFunction,Copper,L2,Bot*
G04 #@! TF.FilePolarity,Positive*
%FSLAX46Y46*%
G04 Gerber Fmt 4.6, Leading zero omitted, Abs format (unit mm)*
G04 Created by KiCad (PCBNEW 9.0.0) date 2025-05-13 10:04:43*
%MOMM*%
%LPD*%
G01*
G04 APERTURE LIST*
G04 #@! TA.AperFunction,ComponentPad*
%ADD10C,2.000000*%
G04 #@! TD*
G04 #@! TA.AperFunction,ComponentPad*
%ADD11R,1.700000X1.700000*%
G04 #@! TD*
G04 #@! TA.AperFunction,ComponentPad*
%ADD12C,1.700000*%
G04 #@! TD*
G04 #@! TA.AperFunction,ComponentPad*
%ADD13C,5.600000*%
G04 #@! TD*
G04 #@! TA.AperFunction,Conductor*
%ADD14C,0.400000*%
G04 #@! TD*
G04 #@! TA.AperFunction,Conductor*
%ADD15C,0.200000*%
G04 #@! TD*
G04 APERTURE END LIST*
D10*
X126420000Y-146320000D03*
X126420000Y-152820000D03*
X121920000Y-146320000D03*
X121920000Y-152820000D03*
D11*
X132850000Y-142000000D03*
D12*
X130310000Y-142000000D03*
X127770000Y-142000000D03*
X125230000Y-142000000D03*
X122690000Y-142000000D03*
X120150000Y-142000000D03*
D10*
X116670000Y-146320000D03*
X116670000Y-152820000D03*
X112170000Y-146320000D03*
X112170000Y-152820000D03*
X106920000Y-146320000D03*
X106920000Y-152820000D03*
X102420000Y-146320000D03*
X102420000Y-152820000D03*
D13*
X156000000Y-134000000D03*
X156000000Y-165000000D03*
X97000000Y-165000000D03*
X97000000Y-134000000D03*
D14*
X109740000Y-143500000D02*
X106920000Y-146320000D01*
X121190000Y-143500000D02*
X109740000Y-143500000D01*
X122690000Y-142000000D02*
X121190000Y-143500000D01*
X118490000Y-144500000D02*
X116670000Y-146320000D01*
X122500000Y-144500000D02*
X118490000Y-144500000D01*
X125000000Y-142000000D02*
X122500000Y-144500000D01*
D15*
X125230000Y-142000000D02*
X125000000Y-142000000D01*
D14*
X126420000Y-143350000D02*
X126420000Y-146320000D01*
X127770000Y-142000000D02*
X126420000Y-143350000D01*
D15*
X125230000Y-142000000D02*
X124450000Y-142000000D01*
X116920000Y-146070000D02*
X116920000Y-146320000D01*
G04 #@! TA.AperFunction,Conductor*
G36*
X156001603Y-129400570D02*
G01*
X156397654Y-129417861D01*
X156404075Y-129418423D01*
X156795498Y-129469956D01*
X156801844Y-129471075D01*
X157187300Y-129556528D01*
X157193504Y-129558190D01*
X157517561Y-129660365D01*
X157570042Y-129676913D01*
X157576108Y-129679121D01*
X157940844Y-129830199D01*
X157946695Y-129832927D01*
X158296884Y-130015224D01*
X158302475Y-130018452D01*
X158635442Y-130230575D01*
X158640727Y-130234275D01*
X158953936Y-130474610D01*
X158958871Y-130478750D01*
X159067564Y-130578349D01*
X159249955Y-130745479D01*
X159254520Y-130750044D01*
X159444531Y-130957404D01*
X159495687Y-131013232D01*
X159521245Y-131041123D01*
X159525391Y-131046066D01*
X159729321Y-131311832D01*
X159765721Y-131359269D01*
X159769424Y-131364557D01*
X159981547Y-131697524D01*
X159984775Y-131703115D01*
X160167072Y-132053304D01*
X160169800Y-132059155D01*
X160320878Y-132423891D01*
X160323086Y-132429957D01*
X160441804Y-132806479D01*
X160443475Y-132812715D01*
X160528923Y-133198150D01*
X160530044Y-133204507D01*
X160581575Y-133595919D01*
X160582138Y-133602350D01*
X160599430Y-133998396D01*
X160599500Y-134001624D01*
X160599500Y-164998375D01*
X160599430Y-165001603D01*
X160582138Y-165397649D01*
X160581575Y-165404080D01*
X160530044Y-165795492D01*
X160528923Y-165801849D01*
X160443475Y-166187284D01*
X160441804Y-166193520D01*
X160323086Y-166570042D01*
X160320878Y-166576108D01*
X160169800Y-166940844D01*
X160167072Y-166946695D01*
X159984775Y-167296884D01*
X159981547Y-167302475D01*
X159769424Y-167635442D01*
X159765721Y-167640730D01*
X159525394Y-167953930D01*
X159521245Y-167958876D01*
X159254520Y-168249955D01*
X159249955Y-168254520D01*
X158958876Y-168521245D01*
X158953930Y-168525394D01*
X158640730Y-168765721D01*
X158635442Y-168769424D01*
X158302475Y-168981547D01*
X158296884Y-168984775D01*
X157946695Y-169167072D01*
X157940844Y-169169800D01*
X157576108Y-169320878D01*
X157570042Y-169323086D01*
X157193520Y-169441804D01*
X157187284Y-169443475D01*
X156801849Y-169528923D01*
X156795492Y-169530044D01*
X156404080Y-169581575D01*
X156397649Y-169582138D01*
X156001603Y-169599430D01*
X155998375Y-169599500D01*
X97001625Y-169599500D01*
X96998397Y-169599430D01*
X96602350Y-169582138D01*
X96595919Y-169581575D01*
X96204507Y-169530044D01*
X96198150Y-169528923D01*
X95812715Y-169443475D01*
X95806479Y-169441804D01*
X95429957Y-169323086D01*
X95423891Y-169320878D01*
X95059155Y-169169800D01*
X95053304Y-169167072D01*
X94703115Y-168984775D01*
X94697524Y-168981547D01*
X94364557Y-168769424D01*
X94359269Y-168765721D01*
X94046069Y-168525394D01*
X94041123Y-168521245D01*
X93750044Y-168254520D01*
X93745479Y-168249955D01*
X93578349Y-168067564D01*
X93478750Y-167958871D01*
X93474605Y-167953930D01*
X93382517Y-167833919D01*
X93234275Y-167640727D01*
X93230575Y-167635442D01*
X93153678Y-167514738D01*
X93018452Y-167302475D01*
X93015224Y-167296884D01*
X92832927Y-166946695D01*
X92830199Y-166940844D01*
X92679121Y-166576108D01*
X92676913Y-166570042D01*
X92613349Y-166368443D01*
X92558190Y-166193504D01*
X92556528Y-166187300D01*
X92471075Y-165801844D01*
X92469955Y-165795492D01*
X92446085Y-165614187D01*
X92418423Y-165404075D01*
X92417861Y-165397649D01*
X92400570Y-165001603D01*
X92400500Y-164998375D01*
X92400500Y-164837881D01*
X93700000Y-164837881D01*
X93700000Y-165162118D01*
X93731781Y-165484799D01*
X93795034Y-165802797D01*
X93889157Y-166113076D01*
X93889162Y-166113090D01*
X94013232Y-166412622D01*
X94013236Y-166412630D01*
X94166080Y-166698582D01*
X94166081Y-166698584D01*
X94346213Y-166968173D01*
X94495889Y-167150553D01*
X95705746Y-165940696D01*
X95779588Y-166042330D01*
X95957670Y-166220412D01*
X96059301Y-166294251D01*
X94849444Y-167504109D01*
X95031826Y-167653786D01*
X95301415Y-167833918D01*
X95301417Y-167833919D01*
X95587369Y-167986763D01*
X95587377Y-167986767D01*
X95886909Y-168110837D01*
X95886923Y-168110842D01*
X96197202Y-168204965D01*
X96515200Y-168268218D01*
X96837882Y-168300000D01*
X97162118Y-168300000D01*
X97484799Y-168268218D01*
X97802797Y-168204965D01*
X98113076Y-168110842D01*
X98113090Y-168110837D01*
X98412622Y-167986767D01*
X98412630Y-167986763D01*
X98698582Y-167833919D01*
X98698584Y-167833918D01*
X98968173Y-167653786D01*
X99150554Y-167504109D01*
X97940697Y-166294252D01*
X98042330Y-166220412D01*
X98220412Y-166042330D01*
X98294252Y-165940697D01*
X99504109Y-167150554D01*
X99653786Y-166968173D01*
X99833918Y-166698584D01*
X99833919Y-166698582D01*
X99986763Y-166412630D01*
X99986767Y-166412622D01*
X100110837Y-166113090D01*
X100110842Y-166113076D01*
X100204965Y-165802797D01*
X100268218Y-165484799D01*
X100300000Y-165162118D01*
X100300000Y-164837881D01*
X100268218Y-164515200D01*
X100204965Y-164197202D01*
X100110842Y-163886923D01*
X100110837Y-163886909D01*
X99986767Y-163587377D01*
X99986763Y-163587369D01*
X99833919Y-163301417D01*
X99833918Y-163301415D01*
X99653786Y-163031826D01*
X99504108Y-162849444D01*
X98294251Y-164059301D01*
X98220412Y-163957670D01*
X98042330Y-163779588D01*
X97940696Y-163705747D01*
X99150554Y-162495890D01*
X98968173Y-162346213D01*
X98698584Y-162166081D01*
X98698582Y-162166080D01*
X98412630Y-162013236D01*
X98412622Y-162013232D01*
X98113090Y-161889162D01*
X98113076Y-161889157D01*
X97802797Y-161795034D01*
X97484799Y-161731781D01*
X97162118Y-161700000D01*
X96837882Y-161700000D01*
X96515200Y-161731781D01*
X96197202Y-161795034D01*
X95886923Y-161889157D01*
X95886909Y-161889162D01*
X95587377Y-162013232D01*
X95587369Y-162013236D01*
X95301417Y-162166080D01*
X95301415Y-162166081D01*
X95031822Y-162346217D01*
X94849444Y-162495889D01*
X96059302Y-163705747D01*
X95957670Y-163779588D01*
X95779588Y-163957670D01*
X95705747Y-164059302D01*
X94495889Y-162849444D01*
X94346217Y-163031822D01*
X94166081Y-163301415D01*
X94166080Y-163301417D01*
X94013236Y-163587369D01*
X94013232Y-163587377D01*
X93889162Y-163886909D01*
X93889157Y-163886923D01*
X93795034Y-164197202D01*
X93731781Y-164515200D01*
X93700000Y-164837881D01*
X92400500Y-164837881D01*
X92400500Y-152701946D01*
X100920000Y-152701946D01*
X100920000Y-152938053D01*
X100956934Y-153171248D01*
X100956937Y-153171261D01*
X101029892Y-153395792D01*
X101137082Y-153606166D01*
X101197340Y-153689105D01*
X101896212Y-152990233D01*
X101907482Y-153032292D01*
X101979890Y-153157708D01*
X102082292Y-153260110D01*
X102207708Y-153332518D01*
X102249765Y-153343787D01*
X101550893Y-154042658D01*
X101633833Y-154102917D01*
X101844207Y-154210107D01*
X102068738Y-154283062D01*
X102068751Y-154283065D01*
X102301946Y-154320000D01*
X102538054Y-154320000D01*
X102771248Y-154283065D01*
X102771261Y-154283062D01*
X102995792Y-154210107D01*
X103206170Y-154102915D01*
X103289105Y-154042659D01*
X102590234Y-153343787D01*
X102632292Y-153332518D01*
X102757708Y-153260110D01*
X102860110Y-153157708D01*
X102932518Y-153032292D01*
X102943787Y-152990233D01*
X103642659Y-153689105D01*
X103702915Y-153606170D01*
X103810107Y-153395792D01*
X103883062Y-153171261D01*
X103883065Y-153171248D01*
X103920000Y-152938053D01*
X103920000Y-152725518D01*
X105719500Y-152725518D01*
X105719500Y-152914481D01*
X105749059Y-153101115D01*
X105749062Y-153101128D01*
X105807449Y-153280824D01*
X105807452Y-153280831D01*
X105807453Y-153280832D01*
X105893240Y-153449199D01*
X106004310Y-153602073D01*
X106137927Y-153735690D01*
X106290801Y-153846760D01*
X106459168Y-153932547D01*
X106459171Y-153932547D01*
X106459175Y-153932550D01*
X106638871Y-153990937D01*
X106638877Y-153990938D01*
X106638882Y-153990940D01*
X106763306Y-154010646D01*
X106825518Y-154020500D01*
X106825519Y-154020500D01*
X107014482Y-154020500D01*
X107061140Y-154013110D01*
X107201118Y-153990940D01*
X107201125Y-153990937D01*
X107201128Y-153990937D01*
X107345343Y-153944078D01*
X107345345Y-153944078D01*
X107380826Y-153932549D01*
X107380826Y-153932548D01*
X107380832Y-153932547D01*
X107549199Y-153846760D01*
X107702073Y-153735690D01*
X107835690Y-153602073D01*
X107946760Y-153449199D01*
X108032547Y-153280832D01*
X108067405Y-153173553D01*
X108090937Y-153101128D01*
X108090937Y-153101125D01*
X108090940Y-153101118D01*
X108120500Y-152914481D01*
X108120500Y-152725519D01*
X108120500Y-152725516D01*
X108118140Y-152710615D01*
X108116767Y-152701946D01*
X110670000Y-152701946D01*
X110670000Y-152938053D01*
X110706934Y-153171248D01*
X110706937Y-153171261D01*
X110779892Y-153395792D01*
X110887082Y-153606166D01*
X110947340Y-153689105D01*
X111646212Y-152990233D01*
X111657482Y-153032292D01*
X111729890Y-153157708D01*
X111832292Y-153260110D01*
X111957708Y-153332518D01*
X111999765Y-153343787D01*
X111300893Y-154042658D01*
X111383833Y-154102917D01*
X111594207Y-154210107D01*
X111818738Y-154283062D01*
X111818751Y-154283065D01*
X112051946Y-154320000D01*
X112288054Y-154320000D01*
X112521248Y-154283065D01*
X112521261Y-154283062D01*
X112745792Y-154210107D01*
X112956170Y-154102915D01*
X113039105Y-154042659D01*
X112340234Y-153343787D01*
X112382292Y-153332518D01*
X112507708Y-153260110D01*
X112610110Y-153157708D01*
X112682518Y-153032292D01*
X112693787Y-152990233D01*
X113392659Y-153689105D01*
X113452915Y-153606170D01*
X113560107Y-153395792D01*
X113633062Y-153171261D01*
X113633065Y-153171248D01*
X113670000Y-152938053D01*
X113670000Y-152725518D01*
X115469500Y-152725518D01*
X115469500Y-152914481D01*
X115499059Y-153101115D01*
X115499062Y-153101128D01*
X115557449Y-153280824D01*
X115557452Y-153280831D01*
X115557453Y-153280832D01*
X115643240Y-153449199D01*
X115754310Y-153602073D01*
X115887927Y-153735690D01*
X116040801Y-153846760D01*
X116209168Y-153932547D01*
X116209171Y-153932547D01*
X116209175Y-153932550D01*
X116388871Y-153990937D01*
X116388877Y-153990938D01*
X116388882Y-153990940D01*
X116513306Y-154010646D01*
X116575518Y-154020500D01*
X116575519Y-154020500D01*
X116764482Y-154020500D01*
X116811140Y-154013110D01*
X116951118Y-153990940D01*
X116951125Y-153990937D01*
X116951128Y-153990937D01*
X117095343Y-153944078D01*
X117095345Y-153944078D01*
X117130826Y-153932549D01*
X117130826Y-153932548D01*
X117130832Y-153932547D01*
X117299199Y-153846760D01*
X117452073Y-153735690D01*
X117585690Y-153602073D01*
X117696760Y-153449199D01*
X117782547Y-153280832D01*
X117817405Y-153173553D01*
X117840937Y-153101128D01*
X117840937Y-153101125D01*
X117840940Y-153101118D01*
X117870500Y-152914481D01*
X117870500Y-152725519D01*
X117870500Y-152725516D01*
X117868140Y-152710615D01*
X117866767Y-152701946D01*
X120420000Y-152701946D01*
X120420000Y-152938053D01*
X120456934Y-153171248D01*
X120456937Y-153171261D01*
X120529892Y-153395792D01*
X120637082Y-153606166D01*
X120697340Y-153689105D01*
X121396212Y-152990233D01*
X121407482Y-153032292D01*
X121479890Y-153157708D01*
X121582292Y-153260110D01*
X121707708Y-153332518D01*
X121749765Y-153343787D01*
X121050893Y-154042658D01*
X121133833Y-154102917D01*
X121344207Y-154210107D01*
X121568738Y-154283062D01*
X121568751Y-154283065D01*
X121801946Y-154320000D01*
X122038054Y-154320000D01*
X122271248Y-154283065D01*
X122271261Y-154283062D01*
X122495792Y-154210107D01*
X122706170Y-154102915D01*
X122789105Y-154042659D01*
X122090234Y-153343787D01*
X122132292Y-153332518D01*
X122257708Y-153260110D01*
X122360110Y-153157708D01*
X122432518Y-153032292D01*
X122443787Y-152990233D01*
X123142659Y-153689105D01*
X123202915Y-153606170D01*
X123310107Y-153395792D01*
X123383062Y-153171261D01*
X123383065Y-153171248D01*
X123420000Y-152938053D01*
X123420000Y-152725518D01*
X125219500Y-152725518D01*
X125219500Y-152914481D01*
X125249059Y-153101115D01*
X125249062Y-153101128D01*
X125307449Y-153280824D01*
X125307452Y-153280831D01*
X125307453Y-153280832D01*
X125393240Y-153449199D01*
X125504310Y-153602073D01*
X125637927Y-153735690D01*
X125790801Y-153846760D01*
X125959168Y-153932547D01*
X125959171Y-153932547D01*
X125959175Y-153932550D01*
X126138871Y-153990937D01*
X126138877Y-153990938D01*
X126138882Y-153990940D01*
X126263306Y-154010646D01*
X126325518Y-154020500D01*
X126325519Y-154020500D01*
X126514482Y-154020500D01*
X126561140Y-154013110D01*
X126701118Y-153990940D01*
X126701125Y-153990937D01*
X126701128Y-153990937D01*
X126880824Y-153932550D01*
X126880826Y-153932548D01*
X126880832Y-153932547D01*
X127049199Y-153846760D01*
X127202073Y-153735690D01*
X127335690Y-153602073D01*
X127446760Y-153449199D01*
X127532547Y-153280832D01*
X127567405Y-153173553D01*
X127590937Y-153101128D01*
X127590937Y-153101125D01*
X127590940Y-153101118D01*
X127620500Y-152914481D01*
X127620500Y-152725519D01*
X127618139Y-152710615D01*
X127590940Y-152538884D01*
X127590937Y-152538871D01*
X127532550Y-152359175D01*
X127532547Y-152359171D01*
X127532547Y-152359168D01*
X127446760Y-152190801D01*
X127335690Y-152037927D01*
X127202073Y-151904310D01*
X127202070Y-151904307D01*
X127202068Y-151904306D01*
X127049198Y-151793239D01*
X126880824Y-151707449D01*
X126701128Y-151649062D01*
X126701115Y-151649059D01*
X126514482Y-151619500D01*
X126514481Y-151619500D01*
X126325519Y-151619500D01*
X126325518Y-151619500D01*
X126138884Y-151649059D01*
X126138871Y-151649062D01*
X125959175Y-151707449D01*
X125790801Y-151793239D01*
X125637931Y-151904306D01*
X125504306Y-152037931D01*
X125393239Y-152190801D01*
X125307449Y-152359175D01*
X125249062Y-152538871D01*
X125249059Y-152538884D01*
X125219500Y-152725518D01*
X123420000Y-152725518D01*
X123420000Y-152701946D01*
X123383065Y-152468751D01*
X123383062Y-152468738D01*
X123310107Y-152244207D01*
X123202917Y-152033833D01*
X123142658Y-151950893D01*
X122443787Y-152649764D01*
X122432518Y-152607708D01*
X122360110Y-152482292D01*
X122257708Y-152379890D01*
X122132292Y-152307482D01*
X122090232Y-152296212D01*
X122789105Y-151597340D01*
X122789106Y-151597340D01*
X122706166Y-151537082D01*
X122495792Y-151429892D01*
X122271261Y-151356937D01*
X122271248Y-151356934D01*
X122038054Y-151320000D01*
X121801946Y-151320000D01*
X121568751Y-151356934D01*
X121568738Y-151356937D01*
X121344207Y-151429892D01*
X121133828Y-151537084D01*
X121050893Y-151597339D01*
X121050893Y-151597340D01*
X121749765Y-152296212D01*
X121707708Y-152307482D01*
X121582292Y-152379890D01*
X121479890Y-152482292D01*
X121407482Y-152607708D01*
X121396212Y-152649765D01*
X120697340Y-151950893D01*
X120697339Y-151950893D01*
X120637084Y-152033828D01*
X120529892Y-152244207D01*
X120456937Y-152468738D01*
X120456934Y-152468751D01*
X120420000Y-152701946D01*
X117866767Y-152701946D01*
X117840940Y-152538884D01*
X117840937Y-152538871D01*
X117782550Y-152359175D01*
X117782547Y-152359171D01*
X117782547Y-152359168D01*
X117696760Y-152190801D01*
X117585690Y-152037927D01*
X117452073Y-151904310D01*
X117452070Y-151904307D01*
X117452068Y-151904306D01*
X117299198Y-151793239D01*
X117130826Y-151707450D01*
X117095342Y-151695921D01*
X117095341Y-151695920D01*
X116951128Y-151649062D01*
X116951115Y-151649059D01*
X116764482Y-151619500D01*
X116764481Y-151619500D01*
X116575519Y-151619500D01*
X116575518Y-151619500D01*
X116388884Y-151649059D01*
X116388871Y-151649062D01*
X116209175Y-151707449D01*
X116040801Y-151793239D01*
X115887931Y-151904306D01*
X115754306Y-152037931D01*
X115643239Y-152190801D01*
X115557449Y-152359175D01*
X115499062Y-152538871D01*
X115499059Y-152538884D01*
X115469500Y-152725518D01*
X113670000Y-152725518D01*
X113670000Y-152701946D01*
X113633065Y-152468751D01*
X113633062Y-152468738D01*
X113560107Y-152244207D01*
X113452917Y-152033833D01*
X113392658Y-151950893D01*
X112693787Y-152649764D01*
X112682518Y-152607708D01*
X112610110Y-152482292D01*
X112507708Y-152379890D01*
X112382292Y-152307482D01*
X112340232Y-152296212D01*
X113039105Y-151597340D01*
X113039106Y-151597340D01*
X112956166Y-151537082D01*
X112745792Y-151429892D01*
X112521261Y-151356937D01*
X112521248Y-151356934D01*
X112288054Y-151320000D01*
X112051946Y-151320000D01*
X111818751Y-151356934D01*
X111818738Y-151356937D01*
X111594207Y-151429892D01*
X111383828Y-151537084D01*
X111300893Y-151597339D01*
X111300893Y-151597340D01*
X111999765Y-152296212D01*
X111957708Y-152307482D01*
X111832292Y-152379890D01*
X111729890Y-152482292D01*
X111657482Y-152607708D01*
X111646212Y-152649765D01*
X110947340Y-151950893D01*
X110947339Y-151950893D01*
X110887084Y-152033828D01*
X110779892Y-152244207D01*
X110706937Y-152468738D01*
X110706934Y-152468751D01*
X110670000Y-152701946D01*
X108116767Y-152701946D01*
X108090940Y-152538884D01*
X108090937Y-152538871D01*
X108032550Y-152359175D01*
X108032547Y-152359171D01*
X108032547Y-152359168D01*
X107946760Y-152190801D01*
X107835690Y-152037927D01*
X107702073Y-151904310D01*
X107702070Y-151904307D01*
X107702068Y-151904306D01*
X107549198Y-151793239D01*
X107380826Y-151707450D01*
X107345342Y-151695921D01*
X107345341Y-151695920D01*
X107201128Y-151649062D01*
X107201115Y-151649059D01*
X107014482Y-151619500D01*
X107014481Y-151619500D01*
X106825519Y-151619500D01*
X106825518Y-151619500D01*
X106638884Y-151649059D01*
X106638871Y-151649062D01*
X106459175Y-151707449D01*
X106290801Y-151793239D01*
X106137931Y-151904306D01*
X106004306Y-152037931D01*
X105893239Y-152190801D01*
X105807449Y-152359175D01*
X105749062Y-152538871D01*
X105749059Y-152538884D01*
X105719500Y-152725518D01*
X103920000Y-152725518D01*
X103920000Y-152701946D01*
X103883065Y-152468751D01*
X103883062Y-152468738D01*
X103810107Y-152244207D01*
X103702917Y-152033833D01*
X103642658Y-151950893D01*
X102943787Y-152649764D01*
X102932518Y-152607708D01*
X102860110Y-152482292D01*
X102757708Y-152379890D01*
X102632292Y-152307482D01*
X102590232Y-152296212D01*
X103289105Y-151597340D01*
X103289106Y-151597340D01*
X103206166Y-151537082D01*
X102995792Y-151429892D01*
X102771261Y-151356937D01*
X102771248Y-151356934D01*
X102538054Y-151320000D01*
X102301946Y-151320000D01*
X102068751Y-151356934D01*
X102068738Y-151356937D01*
X101844207Y-151429892D01*
X101633828Y-151537084D01*
X101550893Y-151597339D01*
X101550893Y-151597340D01*
X102249765Y-152296212D01*
X102207708Y-152307482D01*
X102082292Y-152379890D01*
X101979890Y-152482292D01*
X101907482Y-152607708D01*
X101896212Y-152649765D01*
X101197340Y-151950893D01*
X101197339Y-151950893D01*
X101137084Y-152033828D01*
X101029892Y-152244207D01*
X100956937Y-152468738D01*
X100956934Y-152468751D01*
X100920000Y-152701946D01*
X92400500Y-152701946D01*
X92400500Y-146201946D01*
X100920000Y-146201946D01*
X100920000Y-146438053D01*
X100956934Y-146671248D01*
X100956937Y-146671261D01*
X101029892Y-146895792D01*
X101137082Y-147106166D01*
X101197340Y-147189105D01*
X101896212Y-146490233D01*
X101907482Y-146532292D01*
X101979890Y-146657708D01*
X102082292Y-146760110D01*
X102207708Y-146832518D01*
X102249765Y-146843787D01*
X101550893Y-147542658D01*
X101633833Y-147602917D01*
X101844207Y-147710107D01*
X102068738Y-147783062D01*
X102068751Y-147783065D01*
X102301946Y-147820000D01*
X102538054Y-147820000D01*
X102771248Y-147783065D01*
X102771261Y-147783062D01*
X102995792Y-147710107D01*
X103206170Y-147602915D01*
X103289105Y-147542659D01*
X102590234Y-146843787D01*
X102632292Y-146832518D01*
X102757708Y-146760110D01*
X102860110Y-146657708D01*
X102932518Y-146532292D01*
X102943787Y-146490233D01*
X103642659Y-147189105D01*
X103702915Y-147106170D01*
X103810107Y-146895792D01*
X103883062Y-146671261D01*
X103883065Y-146671248D01*
X103920000Y-146438053D01*
X103920000Y-146225518D01*
X105719500Y-146225518D01*
X105719500Y-146414481D01*
X105749059Y-146601115D01*
X105749062Y-146601128D01*
X105807449Y-146780824D01*
X105807452Y-146780831D01*
X105807453Y-146780832D01*
X105893240Y-146949199D01*
X106004310Y-147102073D01*
X106137927Y-147235690D01*
X106290801Y-147346760D01*
X106459168Y-147432547D01*
X106459171Y-147432547D01*
X106459175Y-147432550D01*
X106638871Y-147490937D01*
X106638877Y-147490938D01*
X106638882Y-147490940D01*
X106763306Y-147510646D01*
X106825518Y-147520500D01*
X106825519Y-147520500D01*
X107014482Y-147520500D01*
X107061140Y-147513110D01*
X107201118Y-147490940D01*
X107201125Y-147490937D01*
X107201128Y-147490937D01*
X107345343Y-147444078D01*
X107345345Y-147444078D01*
X107380826Y-147432549D01*
X107380826Y-147432548D01*
X107380832Y-147432547D01*
X107549199Y-147346760D01*
X107702073Y-147235690D01*
X107835690Y-147102073D01*
X107946760Y-146949199D01*
X108032547Y-146780832D01*
X108067405Y-146673553D01*
X108090937Y-146601128D01*
X108090937Y-146601125D01*
X108090940Y-146601118D01*
X108120500Y-146414481D01*
X108120500Y-146225519D01*
X108120500Y-146225516D01*
X108118140Y-146210615D01*
X108116767Y-146201946D01*
X110670000Y-146201946D01*
X110670000Y-146438053D01*
X110706934Y-146671248D01*
X110706937Y-146671261D01*
X110779892Y-146895792D01*
X110887082Y-147106166D01*
X110947340Y-147189105D01*
X111646212Y-146490233D01*
X111657482Y-146532292D01*
X111729890Y-146657708D01*
X111832292Y-146760110D01*
X111957708Y-146832518D01*
X111999765Y-146843787D01*
X111300893Y-147542658D01*
X111383833Y-147602917D01*
X111594207Y-147710107D01*
X111818738Y-147783062D01*
X111818751Y-147783065D01*
X112051946Y-147820000D01*
X112288054Y-147820000D01*
X112521248Y-147783065D01*
X112521261Y-147783062D01*
X112745792Y-147710107D01*
X112956170Y-147602915D01*
X113039105Y-147542659D01*
X112340234Y-146843787D01*
X112382292Y-146832518D01*
X112507708Y-146760110D01*
X112610110Y-146657708D01*
X112682518Y-146532292D01*
X112693787Y-146490233D01*
X113392659Y-147189105D01*
X113452915Y-147106170D01*
X113560107Y-146895792D01*
X113633062Y-146671261D01*
X113633065Y-146671248D01*
X113670000Y-146438053D01*
X113670000Y-146225518D01*
X115469500Y-146225518D01*
X115469500Y-146414481D01*
X115499059Y-146601115D01*
X115499062Y-146601128D01*
X115557449Y-146780824D01*
X115557452Y-146780831D01*
X115557453Y-146780832D01*
X115643240Y-146949199D01*
X115754310Y-147102073D01*
X115887927Y-147235690D01*
X116040801Y-147346760D01*
X116209168Y-147432547D01*
X116209171Y-147432547D01*
X116209175Y-147432550D01*
X116388871Y-147490937D01*
X116388877Y-147490938D01*
X116388882Y-147490940D01*
X116513306Y-147510646D01*
X116575518Y-147520500D01*
X116575519Y-147520500D01*
X116764482Y-147520500D01*
X116811140Y-147513110D01*
X116951118Y-147490940D01*
X116951125Y-147490937D01*
X116951128Y-147490937D01*
X117095343Y-147444078D01*
X117095345Y-147444078D01*
X117130826Y-147432549D01*
X117130826Y-147432548D01*
X117130832Y-147432547D01*
X117299199Y-147346760D01*
X117452073Y-147235690D01*
X117585690Y-147102073D01*
X117696760Y-146949199D01*
X117782547Y-146780832D01*
X117817405Y-146673553D01*
X117840937Y-146601128D01*
X117840937Y-146601125D01*
X117840940Y-146601118D01*
X117870500Y-146414481D01*
X117870500Y-146225519D01*
X117870500Y-146225516D01*
X117868140Y-146210615D01*
X117840940Y-146038884D01*
X117840937Y-146038871D01*
X117782550Y-145859176D01*
X117782548Y-145859173D01*
X117782547Y-145859168D01*
X117778155Y-145850549D01*
X117773710Y-145794090D01*
X117791761Y-145764630D01*
X118634218Y-144922174D01*
X118686544Y-144900500D01*
X121094331Y-144900500D01*
X121146657Y-144922174D01*
X121168331Y-144974500D01*
X121146657Y-145026826D01*
X121136046Y-145035190D01*
X121136181Y-145035376D01*
X121050893Y-145097339D01*
X121050893Y-145097340D01*
X121749765Y-145796212D01*
X121707708Y-145807482D01*
X121582292Y-145879890D01*
X121479890Y-145982292D01*
X121407482Y-146107708D01*
X121396212Y-146149765D01*
X120697340Y-145450893D01*
X120697339Y-145450893D01*
X120637084Y-145533828D01*
X120529892Y-145744207D01*
X120456937Y-145968738D01*
X120456934Y-145968751D01*
X120420000Y-146201946D01*
X120420000Y-146438053D01*
X120456934Y-146671248D01*
X120456937Y-146671261D01*
X120529892Y-146895792D01*
X120637082Y-147106166D01*
X120697340Y-147189105D01*
X121396212Y-146490233D01*
X121407482Y-146532292D01*
X121479890Y-146657708D01*
X121582292Y-146760110D01*
X121707708Y-146832518D01*
X121749765Y-146843787D01*
X121050893Y-147542658D01*
X121133833Y-147602917D01*
X121344207Y-147710107D01*
X121568738Y-147783062D01*
X121568751Y-147783065D01*
X121801946Y-147820000D01*
X122038054Y-147820000D01*
X122271248Y-147783065D01*
X122271261Y-147783062D01*
X122495792Y-147710107D01*
X122706170Y-147602915D01*
X122789105Y-147542659D01*
X122090234Y-146843787D01*
X122132292Y-146832518D01*
X122257708Y-146760110D01*
X122360110Y-146657708D01*
X122432518Y-146532292D01*
X122443787Y-146490233D01*
X123142659Y-147189105D01*
X123202915Y-147106170D01*
X123310107Y-146895792D01*
X123383062Y-146671261D01*
X123383065Y-146671248D01*
X123420000Y-146438053D01*
X123420000Y-146225518D01*
X125219500Y-146225518D01*
X125219500Y-146414481D01*
X125249059Y-146601115D01*
X125249062Y-146601128D01*
X125307449Y-146780824D01*
X125307452Y-146780831D01*
X125307453Y-146780832D01*
X125393240Y-146949199D01*
X125504310Y-147102073D01*
X125637927Y-147235690D01*
X125790801Y-147346760D01*
X125959168Y-147432547D01*
X125959171Y-147432547D01*
X125959175Y-147432550D01*
X126138871Y-147490937D01*
X126138877Y-147490938D01*
X126138882Y-147490940D01*
X126263306Y-147510646D01*
X126325518Y-147520500D01*
X126325519Y-147520500D01*
X126514482Y-147520500D01*
X126561140Y-147513110D01*
X126701118Y-147490940D01*
X126701125Y-147490937D01*
X126701128Y-147490937D01*
X126880824Y-147432550D01*
X126880826Y-147432548D01*
X126880832Y-147432547D01*
X127049199Y-147346760D01*
X127202073Y-147235690D01*
X127335690Y-147102073D01*
X127446760Y-146949199D01*
X127532547Y-146780832D01*
X127567405Y-146673553D01*
X127590937Y-146601128D01*
X127590937Y-146601125D01*
X127590940Y-146601118D01*
X127620500Y-146414481D01*
X127620500Y-146225519D01*
X127618139Y-146210615D01*
X127590940Y-146038884D01*
X127590937Y-146038871D01*
X127532550Y-145859175D01*
X127532547Y-145859171D01*
X127532547Y-145859168D01*
X127446760Y-145690801D01*
X127335690Y-145537927D01*
X127202073Y-145404310D01*
X127202070Y-145404307D01*
X127202068Y-145404306D01*
X127049198Y-145293239D01*
X126905278Y-145219909D01*
X126880832Y-145207453D01*
X126871629Y-145204462D01*
X126828565Y-145167680D01*
X126820500Y-145134086D01*
X126820500Y-143546544D01*
X126842173Y-143494219D01*
X127331519Y-143004872D01*
X127383844Y-142983199D01*
X127412162Y-142988831D01*
X127463580Y-143010130D01*
X127666535Y-143050500D01*
X127666536Y-143050500D01*
X127873464Y-143050500D01*
X127873465Y-143050500D01*
X128076420Y-143010130D01*
X128267598Y-142930941D01*
X128439655Y-142815977D01*
X128585977Y-142669655D01*
X128700941Y-142497598D01*
X128780130Y-142306420D01*
X128820500Y-142103465D01*
X128820500Y-141896535D01*
X129259500Y-141896535D01*
X129259500Y-142103465D01*
X129261991Y-142115989D01*
X129299868Y-142306413D01*
X129299870Y-142306420D01*
X129379059Y-142497598D01*
X129494023Y-142669655D01*
X129640345Y-142815977D01*
X129812402Y-142930941D01*
X130003580Y-143010130D01*
X130206535Y-143050500D01*
X130206536Y-143050500D01*
X130413464Y-143050500D01*
X130413465Y-143050500D01*
X130616420Y-143010130D01*
X130807598Y-142930941D01*
X130979655Y-142815977D01*
X131125977Y-142669655D01*
X131240941Y-142497598D01*
X131320130Y-142306420D01*
X131353422Y-142139047D01*
X131384888Y-142091955D01*
X131440436Y-142080906D01*
X131487529Y-142112372D01*
X131500000Y-142153484D01*
X131500000Y-142897828D01*
X131506402Y-142957375D01*
X131506403Y-142957380D01*
X131556645Y-143092087D01*
X131556646Y-143092088D01*
X131642811Y-143207188D01*
X131757911Y-143293353D01*
X131757912Y-143293354D01*
X131892619Y-143343596D01*
X131892624Y-143343597D01*
X131952171Y-143350000D01*
X132600000Y-143350000D01*
X132600000Y-142433012D01*
X132657007Y-142465925D01*
X132784174Y-142500000D01*
X132915826Y-142500000D01*
X133042993Y-142465925D01*
X133100000Y-142433012D01*
X133100000Y-143350000D01*
X133747829Y-143350000D01*
X133807375Y-143343597D01*
X133807380Y-143343596D01*
X133942087Y-143293354D01*
X133942088Y-143293353D01*
X134057188Y-143207188D01*
X134143353Y-143092088D01*
X134143354Y-143092087D01*
X134193596Y-142957380D01*
X134193597Y-142957375D01*
X134200000Y-142897828D01*
X134200000Y-142250000D01*
X133283012Y-142250000D01*
X133315925Y-142192993D01*
X133350000Y-142065826D01*
X133350000Y-141934174D01*
X133315925Y-141807007D01*
X133283012Y-141750000D01*
X134200000Y-141750000D01*
X134200000Y-141102171D01*
X134193597Y-141042624D01*
X134193596Y-141042619D01*
X134143354Y-140907912D01*
X134143353Y-140907911D01*
X134057188Y-140792811D01*
X133942088Y-140706646D01*
X133942087Y-140706645D01*
X133807380Y-140656403D01*
X133807375Y-140656402D01*
X133747829Y-140650000D01*
X133100000Y-140650000D01*
X133100000Y-141566988D01*
X133042993Y-141534075D01*
X132915826Y-141500000D01*
X132784174Y-141500000D01*
X132657007Y-141534075D01*
X132600000Y-141566988D01*
X132600000Y-140650000D01*
X131952171Y-140650000D01*
X131892624Y-140656402D01*
X131892619Y-140656403D01*
X131757912Y-140706645D01*
X131757911Y-140706646D01*
X131642811Y-140792811D01*
X131556646Y-140907911D01*
X131556645Y-140907912D01*
X131506403Y-141042619D01*
X131506402Y-141042624D01*
X131500000Y-141102171D01*
X131500000Y-141846515D01*
X131478326Y-141898841D01*
X131426000Y-141920515D01*
X131373674Y-141898841D01*
X131353422Y-141860951D01*
X131342692Y-141807007D01*
X131320130Y-141693580D01*
X131240941Y-141502402D01*
X131125977Y-141330345D01*
X130979655Y-141184023D01*
X130807598Y-141069059D01*
X130616420Y-140989870D01*
X130616413Y-140989868D01*
X130463516Y-140959455D01*
X130413465Y-140949500D01*
X130206535Y-140949500D01*
X130166385Y-140957486D01*
X130003586Y-140989868D01*
X130003579Y-140989870D01*
X129812401Y-141069059D01*
X129640345Y-141184022D01*
X129640344Y-141184024D01*
X129494024Y-141330344D01*
X129494022Y-141330345D01*
X129379059Y-141502401D01*
X129299870Y-141693579D01*
X129299868Y-141693586D01*
X129268305Y-141852269D01*
X129259500Y-141896535D01*
X128820500Y-141896535D01*
X128780130Y-141693580D01*
X128700941Y-141502402D01*
X128585977Y-141330345D01*
X128439655Y-141184023D01*
X128267598Y-141069059D01*
X128076420Y-140989870D01*
X128076413Y-140989868D01*
X127923516Y-140959455D01*
X127873465Y-140949500D01*
X127666535Y-140949500D01*
X127626385Y-140957486D01*
X127463586Y-140989868D01*
X127463579Y-140989870D01*
X127272401Y-141069059D01*
X127100345Y-141184022D01*
X127100344Y-141184024D01*
X126954024Y-141330344D01*
X126954022Y-141330345D01*
X126839059Y-141502401D01*
X126759870Y-141693579D01*
X126759868Y-141693586D01*
X126728305Y-141852269D01*
X126719500Y-141896535D01*
X126719500Y-142103465D01*
X126721991Y-142115989D01*
X126759868Y-142306413D01*
X126759871Y-142306424D01*
X126781167Y-142357836D01*
X126781167Y-142414473D01*
X126765126Y-142438480D01*
X126099517Y-143104090D01*
X126046795Y-143195407D01*
X126046791Y-143195416D01*
X126031070Y-143254087D01*
X126031071Y-143254088D01*
X126020551Y-143293353D01*
X126019500Y-143297274D01*
X126019500Y-145134086D01*
X125997826Y-145186412D01*
X125968371Y-145204462D01*
X125959168Y-145207453D01*
X125959166Y-145207453D01*
X125959166Y-145207454D01*
X125790801Y-145293239D01*
X125637931Y-145404306D01*
X125504306Y-145537931D01*
X125393239Y-145690801D01*
X125307449Y-145859175D01*
X125249062Y-146038871D01*
X125249059Y-146038884D01*
X125219500Y-146225518D01*
X123420000Y-146225518D01*
X123420000Y-146201946D01*
X123383065Y-145968751D01*
X123383062Y-145968738D01*
X123310107Y-145744207D01*
X123202917Y-145533833D01*
X123142658Y-145450893D01*
X122443787Y-146149764D01*
X122432518Y-146107708D01*
X122360110Y-145982292D01*
X122257708Y-145879890D01*
X122132292Y-145807482D01*
X122090232Y-145796212D01*
X122789105Y-145097340D01*
X122789106Y-145097340D01*
X122706166Y-145037082D01*
X122648656Y-145007780D01*
X122611873Y-144964713D01*
X122616316Y-144908250D01*
X122650812Y-144876366D01*
X122650388Y-144875632D01*
X122653636Y-144873756D01*
X122653942Y-144873474D01*
X122654576Y-144873210D01*
X122654588Y-144873207D01*
X122745913Y-144820480D01*
X124631342Y-142935049D01*
X124683667Y-142913376D01*
X124724781Y-142925849D01*
X124732402Y-142930941D01*
X124923580Y-143010130D01*
X125126535Y-143050500D01*
X125126536Y-143050500D01*
X125333464Y-143050500D01*
X125333465Y-143050500D01*
X125536420Y-143010130D01*
X125727598Y-142930941D01*
X125899655Y-142815977D01*
X126045977Y-142669655D01*
X126160941Y-142497598D01*
X126240130Y-142306420D01*
X126280500Y-142103465D01*
X126280500Y-141896535D01*
X126240130Y-141693580D01*
X126160941Y-141502402D01*
X126045977Y-141330345D01*
X125899655Y-141184023D01*
X125727598Y-141069059D01*
X125536420Y-140989870D01*
X125536413Y-140989868D01*
X125383516Y-140959455D01*
X125333465Y-140949500D01*
X125126535Y-140949500D01*
X125086385Y-140957486D01*
X124923586Y-140989868D01*
X124923579Y-140989870D01*
X124732401Y-141069059D01*
X124560345Y-141184022D01*
X124560344Y-141184024D01*
X124414024Y-141330344D01*
X124414022Y-141330345D01*
X124299059Y-141502401D01*
X124219869Y-141693581D01*
X124219868Y-141693584D01*
X124190687Y-141840287D01*
X124182196Y-141862847D01*
X124169981Y-141884005D01*
X124169978Y-141884012D01*
X124149500Y-141960435D01*
X124149500Y-142039564D01*
X124169977Y-142115985D01*
X124169978Y-142115987D01*
X124169979Y-142115989D01*
X124182197Y-142137152D01*
X124190687Y-142159712D01*
X124196775Y-142190320D01*
X124185725Y-142245869D01*
X124176523Y-142257082D01*
X122355781Y-144077826D01*
X122303455Y-144099500D01*
X118547273Y-144099500D01*
X118547257Y-144099499D01*
X118542727Y-144099499D01*
X118437273Y-144099499D01*
X118437271Y-144099499D01*
X118335416Y-144126791D01*
X118335411Y-144126793D01*
X118244086Y-144179520D01*
X118169518Y-144254089D01*
X117225370Y-145198235D01*
X117173044Y-145219909D01*
X117139448Y-145211843D01*
X117130835Y-145207454D01*
X117130826Y-145207450D01*
X116951128Y-145149062D01*
X116951115Y-145149059D01*
X116764482Y-145119500D01*
X116764481Y-145119500D01*
X116575519Y-145119500D01*
X116575518Y-145119500D01*
X116388884Y-145149059D01*
X116388871Y-145149062D01*
X116209175Y-145207449D01*
X116040801Y-145293239D01*
X115887931Y-145404306D01*
X115754306Y-145537931D01*
X115643239Y-145690801D01*
X115557449Y-145859175D01*
X115499062Y-146038871D01*
X115499059Y-146038884D01*
X115469500Y-146225518D01*
X113670000Y-146225518D01*
X113670000Y-146201946D01*
X113633065Y-145968751D01*
X113633062Y-145968738D01*
X113560107Y-145744207D01*
X113452917Y-145533833D01*
X113392658Y-145450893D01*
X112693787Y-146149764D01*
X112682518Y-146107708D01*
X112610110Y-145982292D01*
X112507708Y-145879890D01*
X112382292Y-145807482D01*
X112340232Y-145796212D01*
X113039105Y-145097340D01*
X113039106Y-145097340D01*
X112956166Y-145037082D01*
X112745792Y-144929892D01*
X112521261Y-144856937D01*
X112521248Y-144856934D01*
X112288054Y-144820000D01*
X112051946Y-144820000D01*
X111818751Y-144856934D01*
X111818738Y-144856937D01*
X111594207Y-144929892D01*
X111383828Y-145037084D01*
X111300893Y-145097339D01*
X111300893Y-145097340D01*
X111999765Y-145796212D01*
X111957708Y-145807482D01*
X111832292Y-145879890D01*
X111729890Y-145982292D01*
X111657482Y-146107708D01*
X111646212Y-146149765D01*
X110947340Y-145450893D01*
X110947339Y-145450893D01*
X110887084Y-145533828D01*
X110779892Y-145744207D01*
X110706937Y-145968738D01*
X110706934Y-145968751D01*
X110670000Y-146201946D01*
X108116767Y-146201946D01*
X108090940Y-146038884D01*
X108090937Y-146038871D01*
X108032550Y-145859176D01*
X108032548Y-145859173D01*
X108032547Y-145859168D01*
X108028155Y-145850549D01*
X108023710Y-145794090D01*
X108041761Y-145764630D01*
X109884219Y-143922174D01*
X109936545Y-143900500D01*
X121242726Y-143900500D01*
X121242727Y-143900500D01*
X121344588Y-143873207D01*
X121435913Y-143820480D01*
X122251519Y-143004872D01*
X122303844Y-142983199D01*
X122332162Y-142988831D01*
X122383580Y-143010130D01*
X122586535Y-143050500D01*
X122586536Y-143050500D01*
X122793464Y-143050500D01*
X122793465Y-143050500D01*
X122996420Y-143010130D01*
X123187598Y-142930941D01*
X123359655Y-142815977D01*
X123505977Y-142669655D01*
X123620941Y-142497598D01*
X123700130Y-142306420D01*
X123740500Y-142103465D01*
X123740500Y-141896535D01*
X123700130Y-141693580D01*
X123620941Y-141502402D01*
X123505977Y-141330345D01*
X123359655Y-141184023D01*
X123187598Y-141069059D01*
X122996420Y-140989870D01*
X122996413Y-140989868D01*
X122843516Y-140959455D01*
X122793465Y-140949500D01*
X122586535Y-140949500D01*
X122546385Y-140957486D01*
X122383586Y-140989868D01*
X122383579Y-140989870D01*
X122192401Y-141069059D01*
X122020345Y-141184022D01*
X122020344Y-141184024D01*
X121874024Y-141330344D01*
X121874022Y-141330345D01*
X121759059Y-141502401D01*
X121679870Y-141693579D01*
X121679868Y-141693586D01*
X121648305Y-141852269D01*
X121639500Y-141896535D01*
X121639500Y-142103465D01*
X121641991Y-142115989D01*
X121679868Y-142306413D01*
X121679871Y-142306424D01*
X121701167Y-142357836D01*
X121701167Y-142414473D01*
X121685126Y-142438480D01*
X121045781Y-143077826D01*
X120993455Y-143099500D01*
X120612684Y-143099500D01*
X120560358Y-143077826D01*
X120538684Y-143025500D01*
X120560358Y-142973174D01*
X120584365Y-142957133D01*
X120647598Y-142930941D01*
X120819655Y-142815977D01*
X120965977Y-142669655D01*
X121080941Y-142497598D01*
X121160130Y-142306420D01*
X121200500Y-142103465D01*
X121200500Y-141896535D01*
X121160130Y-141693580D01*
X121080941Y-141502402D01*
X120965977Y-141330345D01*
X120819655Y-141184023D01*
X120647598Y-141069059D01*
X120456420Y-140989870D01*
X120456413Y-140989868D01*
X120303516Y-140959455D01*
X120253465Y-140949500D01*
X120046535Y-140949500D01*
X120006385Y-140957486D01*
X119843586Y-140989868D01*
X119843579Y-140989870D01*
X119652401Y-141069059D01*
X119480345Y-141184022D01*
X119480344Y-141184024D01*
X119334024Y-141330344D01*
X119334022Y-141330345D01*
X119219059Y-141502401D01*
X119139870Y-141693579D01*
X119139868Y-141693586D01*
X119108305Y-141852269D01*
X119099500Y-141896535D01*
X119099500Y-142103465D01*
X119101991Y-142115989D01*
X119139868Y-142306413D01*
X119139870Y-142306420D01*
X119219059Y-142497598D01*
X119334023Y-142669655D01*
X119480345Y-142815977D01*
X119652402Y-142930941D01*
X119715635Y-142957133D01*
X119755683Y-142997182D01*
X119755683Y-143053819D01*
X119715634Y-143093867D01*
X119687316Y-143099500D01*
X109792727Y-143099500D01*
X109687273Y-143099500D01*
X109670154Y-143104087D01*
X109585411Y-143126793D01*
X109585407Y-143126795D01*
X109494090Y-143179517D01*
X107475370Y-145198235D01*
X107423044Y-145219909D01*
X107389448Y-145211843D01*
X107380835Y-145207454D01*
X107380826Y-145207450D01*
X107201128Y-145149062D01*
X107201115Y-145149059D01*
X107014482Y-145119500D01*
X107014481Y-145119500D01*
X106825519Y-145119500D01*
X106825518Y-145119500D01*
X106638884Y-145149059D01*
X106638871Y-145149062D01*
X106459175Y-145207449D01*
X106290801Y-145293239D01*
X106137931Y-145404306D01*
X106004306Y-145537931D01*
X105893239Y-145690801D01*
X105807449Y-145859175D01*
X105749062Y-146038871D01*
X105749059Y-146038884D01*
X105719500Y-146225518D01*
X103920000Y-146225518D01*
X103920000Y-146201946D01*
X103883065Y-145968751D01*
X103883062Y-145968738D01*
X103810107Y-145744207D01*
X103702917Y-145533833D01*
X103642658Y-145450893D01*
X102943787Y-146149764D01*
X102932518Y-146107708D01*
X102860110Y-145982292D01*
X102757708Y-145879890D01*
X102632292Y-145807482D01*
X102590232Y-145796212D01*
X103289105Y-145097340D01*
X103289106Y-145097340D01*
X103206166Y-145037082D01*
X102995792Y-144929892D01*
X102771261Y-144856937D01*
X102771248Y-144856934D01*
X102538054Y-144820000D01*
X102301946Y-144820000D01*
X102068751Y-144856934D01*
X102068738Y-144856937D01*
X101844207Y-144929892D01*
X101633828Y-145037084D01*
X101550893Y-145097339D01*
X101550893Y-145097340D01*
X102249765Y-145796212D01*
X102207708Y-145807482D01*
X102082292Y-145879890D01*
X101979890Y-145982292D01*
X101907482Y-146107708D01*
X101896212Y-146149765D01*
X101197340Y-145450893D01*
X101197339Y-145450893D01*
X101137084Y-145533828D01*
X101029892Y-145744207D01*
X100956937Y-145968738D01*
X100956934Y-145968751D01*
X100920000Y-146201946D01*
X92400500Y-146201946D01*
X92400500Y-134001624D01*
X92400570Y-133998396D01*
X92407578Y-133837881D01*
X93700000Y-133837881D01*
X93700000Y-134162118D01*
X93731781Y-134484799D01*
X93795034Y-134802797D01*
X93889157Y-135113076D01*
X93889162Y-135113090D01*
X94013232Y-135412622D01*
X94013236Y-135412630D01*
X94166080Y-135698582D01*
X94166081Y-135698584D01*
X94346213Y-135968173D01*
X94495889Y-136150553D01*
X95705746Y-134940696D01*
X95779588Y-135042330D01*
X95957670Y-135220412D01*
X96059301Y-135294251D01*
X94849444Y-136504109D01*
X95031826Y-136653786D01*
X95301415Y-136833918D01*
X95301417Y-136833919D01*
X95587369Y-136986763D01*
X95587377Y-136986767D01*
X95886909Y-137110837D01*
X95886923Y-137110842D01*
X96197202Y-137204965D01*
X96515200Y-137268218D01*
X96837882Y-137300000D01*
X97162118Y-137300000D01*
X97484799Y-137268218D01*
X97802797Y-137204965D01*
X98113076Y-137110842D01*
X98113090Y-137110837D01*
X98412622Y-136986767D01*
X98412630Y-136986763D01*
X98698582Y-136833919D01*
X98698584Y-136833918D01*
X98968173Y-136653786D01*
X99150554Y-136504109D01*
X97940697Y-135294252D01*
X98042330Y-135220412D01*
X98220412Y-135042330D01*
X98294252Y-134940697D01*
X99504109Y-136150554D01*
X99653786Y-135968173D01*
X99833918Y-135698584D01*
X99833919Y-135698582D01*
X99986763Y-135412630D01*
X99986767Y-135412622D01*
X100110837Y-135113090D01*
X100110842Y-135113076D01*
X100204965Y-134802797D01*
X100268218Y-134484799D01*
X100300000Y-134162118D01*
X100300000Y-133837881D01*
X100268218Y-133515200D01*
X100204965Y-133197202D01*
X100110842Y-132886923D01*
X100110837Y-132886909D01*
X99986767Y-132587377D01*
X99986763Y-132587369D01*
X99833919Y-132301417D01*
X99833918Y-132301415D01*
X99653786Y-132031826D01*
X99504108Y-131849444D01*
X98294251Y-133059301D01*
X98220412Y-132957670D01*
X98042330Y-132779588D01*
X97940696Y-132705747D01*
X99150554Y-131495890D01*
X98968173Y-131346213D01*
X98698584Y-131166081D01*
X98698582Y-131166080D01*
X98412630Y-131013236D01*
X98412622Y-131013232D01*
X98113090Y-130889162D01*
X98113076Y-130889157D01*
X97802797Y-130795034D01*
X97484799Y-130731781D01*
X97162118Y-130700000D01*
X96837882Y-130700000D01*
X96515200Y-130731781D01*
X96197202Y-130795034D01*
X95886923Y-130889157D01*
X95886909Y-130889162D01*
X95587377Y-131013232D01*
X95587369Y-131013236D01*
X95301417Y-131166080D01*
X95301415Y-131166081D01*
X95031822Y-131346217D01*
X94849444Y-131495889D01*
X96059302Y-132705747D01*
X95957670Y-132779588D01*
X95779588Y-132957670D01*
X95705747Y-133059302D01*
X94495889Y-131849444D01*
X94346217Y-132031822D01*
X94166081Y-132301415D01*
X94166080Y-132301417D01*
X94013236Y-132587369D01*
X94013232Y-132587377D01*
X93889162Y-132886909D01*
X93889157Y-132886923D01*
X93795034Y-133197202D01*
X93731781Y-133515200D01*
X93700000Y-133837881D01*
X92407578Y-133837881D01*
X92407798Y-133832836D01*
X92417861Y-133602350D01*
X92418424Y-133595919D01*
X92429051Y-133515200D01*
X92469956Y-133204497D01*
X92471076Y-133198150D01*
X92556529Y-132812693D01*
X92558188Y-132806501D01*
X92676914Y-132429953D01*
X92679121Y-132423891D01*
X92830199Y-132059155D01*
X92832927Y-132053304D01*
X92939050Y-131849444D01*
X93015229Y-131703104D01*
X93018445Y-131697534D01*
X93230584Y-131364542D01*
X93234267Y-131359283D01*
X93474619Y-131046052D01*
X93478740Y-131041139D01*
X93745482Y-130750040D01*
X93750044Y-130745479D01*
X93799676Y-130700000D01*
X94041139Y-130478740D01*
X94046052Y-130474619D01*
X94359283Y-130234267D01*
X94364542Y-130230584D01*
X94697534Y-130018445D01*
X94703104Y-130015229D01*
X95053311Y-129832923D01*
X95059148Y-129830201D01*
X95423896Y-129679119D01*
X95429953Y-129676914D01*
X95806501Y-129558188D01*
X95812693Y-129556529D01*
X96198159Y-129471074D01*
X96204497Y-129469956D01*
X96595926Y-129418423D01*
X96602343Y-129417861D01*
X96998397Y-129400570D01*
X97001625Y-129400500D01*
X97057583Y-129400500D01*
X155942417Y-129400500D01*
X155998375Y-129400500D01*
X156001603Y-129400570D01*
G37*
G04 #@! TD.AperFunction*
M02*
