G04 #@! TF.GenerationSoftware,KiCad,Pcbnew,9.0.0*
G04 #@! TF.CreationDate,2025-05-13T10:04:43+08:00*
G04 #@! TF.ProjectId,STEAM 2025 V4,53544541-4d20-4323-9032-352056342e6b,rev?*
G04 #@! TF.SameCoordinates,Original*
G04 #@! TF.FileFunction,Legend,Bot*
G04 #@! TF.FilePolarity,Positive*
%FSLAX46Y46*%
G04 Gerber Fmt 4.6, Leading zero omitted, Abs format (unit mm)*
G04 Created by KiCad (PCBNEW 9.0.0) date 2025-05-13 10:04:43*
%MOMM*%
%LPD*%
G01*
G04 APERTURE LIST*
%ADD10C,0.150000*%
%ADD11C,2.000000*%
%ADD12R,1.700000X1.700000*%
%ADD13C,1.700000*%
%ADD14C,5.600000*%
G04 APERTURE END LIST*
D10*
X130822342Y-137965826D02*
X130822342Y-137394398D01*
X130822342Y-137394398D02*
X129622342Y-137394398D01*
X130193771Y-138365827D02*
X130193771Y-138765827D01*
X130822342Y-138937255D02*
X130822342Y-138365827D01*
X130822342Y-138365827D02*
X129622342Y-138365827D01*
X129622342Y-138365827D02*
X129622342Y-138937255D01*
X130822342Y-139451541D02*
X129622342Y-139451541D01*
X129622342Y-139451541D02*
X129622342Y-139737255D01*
X129622342Y-139737255D02*
X129679485Y-139908684D01*
X129679485Y-139908684D02*
X129793771Y-140022969D01*
X129793771Y-140022969D02*
X129908057Y-140080112D01*
X129908057Y-140080112D02*
X130136628Y-140137255D01*
X130136628Y-140137255D02*
X130308057Y-140137255D01*
X130308057Y-140137255D02*
X130536628Y-140080112D01*
X130536628Y-140080112D02*
X130650914Y-140022969D01*
X130650914Y-140022969D02*
X130765200Y-139908684D01*
X130765200Y-139908684D02*
X130822342Y-139737255D01*
X130822342Y-139737255D02*
X130822342Y-139451541D01*
X125747342Y-135274398D02*
X124547342Y-135274398D01*
X124547342Y-135274398D02*
X124547342Y-135731541D01*
X124547342Y-135731541D02*
X124604485Y-135845826D01*
X124604485Y-135845826D02*
X124661628Y-135902969D01*
X124661628Y-135902969D02*
X124775914Y-135960112D01*
X124775914Y-135960112D02*
X124947342Y-135960112D01*
X124947342Y-135960112D02*
X125061628Y-135902969D01*
X125061628Y-135902969D02*
X125118771Y-135845826D01*
X125118771Y-135845826D02*
X125175914Y-135731541D01*
X125175914Y-135731541D02*
X125175914Y-135274398D01*
X125747342Y-136988684D02*
X125118771Y-136988684D01*
X125118771Y-136988684D02*
X125004485Y-136931541D01*
X125004485Y-136931541D02*
X124947342Y-136817255D01*
X124947342Y-136817255D02*
X124947342Y-136588684D01*
X124947342Y-136588684D02*
X125004485Y-136474398D01*
X125690200Y-136988684D02*
X125747342Y-136874398D01*
X125747342Y-136874398D02*
X125747342Y-136588684D01*
X125747342Y-136588684D02*
X125690200Y-136474398D01*
X125690200Y-136474398D02*
X125575914Y-136417255D01*
X125575914Y-136417255D02*
X125461628Y-136417255D01*
X125461628Y-136417255D02*
X125347342Y-136474398D01*
X125347342Y-136474398D02*
X125290200Y-136588684D01*
X125290200Y-136588684D02*
X125290200Y-136874398D01*
X125290200Y-136874398D02*
X125233057Y-136988684D01*
X124947342Y-138074398D02*
X125747342Y-138074398D01*
X124947342Y-137560112D02*
X125575914Y-137560112D01*
X125575914Y-137560112D02*
X125690200Y-137617255D01*
X125690200Y-137617255D02*
X125747342Y-137731540D01*
X125747342Y-137731540D02*
X125747342Y-137902969D01*
X125747342Y-137902969D02*
X125690200Y-138017255D01*
X125690200Y-138017255D02*
X125633057Y-138074398D01*
X125690200Y-138588683D02*
X125747342Y-138702969D01*
X125747342Y-138702969D02*
X125747342Y-138931540D01*
X125747342Y-138931540D02*
X125690200Y-139045826D01*
X125690200Y-139045826D02*
X125575914Y-139102969D01*
X125575914Y-139102969D02*
X125518771Y-139102969D01*
X125518771Y-139102969D02*
X125404485Y-139045826D01*
X125404485Y-139045826D02*
X125347342Y-138931540D01*
X125347342Y-138931540D02*
X125347342Y-138760112D01*
X125347342Y-138760112D02*
X125290200Y-138645826D01*
X125290200Y-138645826D02*
X125175914Y-138588683D01*
X125175914Y-138588683D02*
X125118771Y-138588683D01*
X125118771Y-138588683D02*
X125004485Y-138645826D01*
X125004485Y-138645826D02*
X124947342Y-138760112D01*
X124947342Y-138760112D02*
X124947342Y-138931540D01*
X124947342Y-138931540D02*
X125004485Y-139045826D01*
X125690200Y-140074398D02*
X125747342Y-139960112D01*
X125747342Y-139960112D02*
X125747342Y-139731541D01*
X125747342Y-139731541D02*
X125690200Y-139617255D01*
X125690200Y-139617255D02*
X125575914Y-139560112D01*
X125575914Y-139560112D02*
X125118771Y-139560112D01*
X125118771Y-139560112D02*
X125004485Y-139617255D01*
X125004485Y-139617255D02*
X124947342Y-139731541D01*
X124947342Y-139731541D02*
X124947342Y-139960112D01*
X124947342Y-139960112D02*
X125004485Y-140074398D01*
X125004485Y-140074398D02*
X125118771Y-140131541D01*
X125118771Y-140131541D02*
X125233057Y-140131541D01*
X125233057Y-140131541D02*
X125347342Y-139560112D01*
X132204485Y-137612969D02*
X132147342Y-137498684D01*
X132147342Y-137498684D02*
X132147342Y-137327255D01*
X132147342Y-137327255D02*
X132204485Y-137155826D01*
X132204485Y-137155826D02*
X132318771Y-137041541D01*
X132318771Y-137041541D02*
X132433057Y-136984398D01*
X132433057Y-136984398D02*
X132661628Y-136927255D01*
X132661628Y-136927255D02*
X132833057Y-136927255D01*
X132833057Y-136927255D02*
X133061628Y-136984398D01*
X133061628Y-136984398D02*
X133175914Y-137041541D01*
X133175914Y-137041541D02*
X133290200Y-137155826D01*
X133290200Y-137155826D02*
X133347342Y-137327255D01*
X133347342Y-137327255D02*
X133347342Y-137441541D01*
X133347342Y-137441541D02*
X133290200Y-137612969D01*
X133290200Y-137612969D02*
X133233057Y-137670112D01*
X133233057Y-137670112D02*
X132833057Y-137670112D01*
X132833057Y-137670112D02*
X132833057Y-137441541D01*
X133347342Y-138184398D02*
X132147342Y-138184398D01*
X132147342Y-138184398D02*
X133347342Y-138870112D01*
X133347342Y-138870112D02*
X132147342Y-138870112D01*
X133347342Y-139441541D02*
X132147342Y-139441541D01*
X132147342Y-139441541D02*
X132147342Y-139727255D01*
X132147342Y-139727255D02*
X132204485Y-139898684D01*
X132204485Y-139898684D02*
X132318771Y-140012969D01*
X132318771Y-140012969D02*
X132433057Y-140070112D01*
X132433057Y-140070112D02*
X132661628Y-140127255D01*
X132661628Y-140127255D02*
X132833057Y-140127255D01*
X132833057Y-140127255D02*
X133061628Y-140070112D01*
X133061628Y-140070112D02*
X133175914Y-140012969D01*
X133175914Y-140012969D02*
X133290200Y-139898684D01*
X133290200Y-139898684D02*
X133347342Y-139727255D01*
X133347342Y-139727255D02*
X133347342Y-139441541D01*
X128247342Y-136754398D02*
X127047342Y-136754398D01*
X127047342Y-136754398D02*
X127047342Y-137211541D01*
X127047342Y-137211541D02*
X127104485Y-137325826D01*
X127104485Y-137325826D02*
X127161628Y-137382969D01*
X127161628Y-137382969D02*
X127275914Y-137440112D01*
X127275914Y-137440112D02*
X127447342Y-137440112D01*
X127447342Y-137440112D02*
X127561628Y-137382969D01*
X127561628Y-137382969D02*
X127618771Y-137325826D01*
X127618771Y-137325826D02*
X127675914Y-137211541D01*
X127675914Y-137211541D02*
X127675914Y-136754398D01*
X128247342Y-138125826D02*
X128190200Y-138011541D01*
X128190200Y-138011541D02*
X128075914Y-137954398D01*
X128075914Y-137954398D02*
X127047342Y-137954398D01*
X127447342Y-139097255D02*
X128247342Y-139097255D01*
X127447342Y-138582969D02*
X128075914Y-138582969D01*
X128075914Y-138582969D02*
X128190200Y-138640112D01*
X128190200Y-138640112D02*
X128247342Y-138754397D01*
X128247342Y-138754397D02*
X128247342Y-138925826D01*
X128247342Y-138925826D02*
X128190200Y-139040112D01*
X128190200Y-139040112D02*
X128133057Y-139097255D01*
X128190200Y-139611540D02*
X128247342Y-139725826D01*
X128247342Y-139725826D02*
X128247342Y-139954397D01*
X128247342Y-139954397D02*
X128190200Y-140068683D01*
X128190200Y-140068683D02*
X128075914Y-140125826D01*
X128075914Y-140125826D02*
X128018771Y-140125826D01*
X128018771Y-140125826D02*
X127904485Y-140068683D01*
X127904485Y-140068683D02*
X127847342Y-139954397D01*
X127847342Y-139954397D02*
X127847342Y-139782969D01*
X127847342Y-139782969D02*
X127790200Y-139668683D01*
X127790200Y-139668683D02*
X127675914Y-139611540D01*
X127675914Y-139611540D02*
X127618771Y-139611540D01*
X127618771Y-139611540D02*
X127504485Y-139668683D01*
X127504485Y-139668683D02*
X127447342Y-139782969D01*
X127447342Y-139782969D02*
X127447342Y-139954397D01*
X127447342Y-139954397D02*
X127504485Y-140068683D01*
X123197342Y-135564398D02*
X121997342Y-135564398D01*
X121997342Y-135564398D02*
X122854485Y-135964398D01*
X122854485Y-135964398D02*
X121997342Y-136364398D01*
X121997342Y-136364398D02*
X123197342Y-136364398D01*
X123197342Y-136935827D02*
X122397342Y-136935827D01*
X121997342Y-136935827D02*
X122054485Y-136878684D01*
X122054485Y-136878684D02*
X122111628Y-136935827D01*
X122111628Y-136935827D02*
X122054485Y-136992970D01*
X122054485Y-136992970D02*
X121997342Y-136935827D01*
X121997342Y-136935827D02*
X122111628Y-136935827D01*
X122397342Y-137507256D02*
X123197342Y-137507256D01*
X122511628Y-137507256D02*
X122454485Y-137564399D01*
X122454485Y-137564399D02*
X122397342Y-137678684D01*
X122397342Y-137678684D02*
X122397342Y-137850113D01*
X122397342Y-137850113D02*
X122454485Y-137964399D01*
X122454485Y-137964399D02*
X122568771Y-138021542D01*
X122568771Y-138021542D02*
X123197342Y-138021542D01*
X122397342Y-139107256D02*
X123197342Y-139107256D01*
X122397342Y-138592970D02*
X123025914Y-138592970D01*
X123025914Y-138592970D02*
X123140200Y-138650113D01*
X123140200Y-138650113D02*
X123197342Y-138764398D01*
X123197342Y-138764398D02*
X123197342Y-138935827D01*
X123197342Y-138935827D02*
X123140200Y-139050113D01*
X123140200Y-139050113D02*
X123083057Y-139107256D01*
X123140200Y-139621541D02*
X123197342Y-139735827D01*
X123197342Y-139735827D02*
X123197342Y-139964398D01*
X123197342Y-139964398D02*
X123140200Y-140078684D01*
X123140200Y-140078684D02*
X123025914Y-140135827D01*
X123025914Y-140135827D02*
X122968771Y-140135827D01*
X122968771Y-140135827D02*
X122854485Y-140078684D01*
X122854485Y-140078684D02*
X122797342Y-139964398D01*
X122797342Y-139964398D02*
X122797342Y-139792970D01*
X122797342Y-139792970D02*
X122740200Y-139678684D01*
X122740200Y-139678684D02*
X122625914Y-139621541D01*
X122625914Y-139621541D02*
X122568771Y-139621541D01*
X122568771Y-139621541D02*
X122454485Y-139678684D01*
X122454485Y-139678684D02*
X122397342Y-139792970D01*
X122397342Y-139792970D02*
X122397342Y-139964398D01*
X122397342Y-139964398D02*
X122454485Y-140078684D01*
X119457342Y-137220112D02*
X119457342Y-137962969D01*
X119457342Y-137962969D02*
X119914485Y-137562969D01*
X119914485Y-137562969D02*
X119914485Y-137734398D01*
X119914485Y-137734398D02*
X119971628Y-137848684D01*
X119971628Y-137848684D02*
X120028771Y-137905826D01*
X120028771Y-137905826D02*
X120143057Y-137962969D01*
X120143057Y-137962969D02*
X120428771Y-137962969D01*
X120428771Y-137962969D02*
X120543057Y-137905826D01*
X120543057Y-137905826D02*
X120600200Y-137848684D01*
X120600200Y-137848684D02*
X120657342Y-137734398D01*
X120657342Y-137734398D02*
X120657342Y-137391541D01*
X120657342Y-137391541D02*
X120600200Y-137277255D01*
X120600200Y-137277255D02*
X120543057Y-137220112D01*
X119457342Y-138305826D02*
X120657342Y-138705826D01*
X120657342Y-138705826D02*
X119457342Y-139105826D01*
X119457342Y-139391540D02*
X119457342Y-140134397D01*
X119457342Y-140134397D02*
X119914485Y-139734397D01*
X119914485Y-139734397D02*
X119914485Y-139905826D01*
X119914485Y-139905826D02*
X119971628Y-140020112D01*
X119971628Y-140020112D02*
X120028771Y-140077254D01*
X120028771Y-140077254D02*
X120143057Y-140134397D01*
X120143057Y-140134397D02*
X120428771Y-140134397D01*
X120428771Y-140134397D02*
X120543057Y-140077254D01*
X120543057Y-140077254D02*
X120600200Y-140020112D01*
X120600200Y-140020112D02*
X120657342Y-139905826D01*
X120657342Y-139905826D02*
X120657342Y-139562969D01*
X120657342Y-139562969D02*
X120600200Y-139448683D01*
X120600200Y-139448683D02*
X120543057Y-139391540D01*
%LPC*%
D11*
X126420000Y-146320000D03*
X126420000Y-152820000D03*
X121920000Y-146320000D03*
X121920000Y-152820000D03*
D12*
X132850000Y-142000000D03*
D13*
X130310000Y-142000000D03*
X127770000Y-142000000D03*
X125230000Y-142000000D03*
X122690000Y-142000000D03*
X120150000Y-142000000D03*
D11*
X116670000Y-146320000D03*
X116670000Y-152820000D03*
X112170000Y-146320000D03*
X112170000Y-152820000D03*
X106920000Y-146320000D03*
X106920000Y-152820000D03*
X102420000Y-146320000D03*
X102420000Y-152820000D03*
D14*
X156000000Y-134000000D03*
X156000000Y-165000000D03*
X97000000Y-165000000D03*
X97000000Y-134000000D03*
%LPD*%
M02*
